<?xml version="1.0" encoding="utf-8"?>
<!-- Generator: Adobe Illustrator 23.0.0, SVG Export Plug-In . SVG Version: 6.00 Build 0)  -->
<svg version="1.1" id="Layer_1" xmlns="http://www.w3.org/2000/svg" xmlns:xlink="http://www.w3.org/1999/xlink" x="0px" y="0px"
	 viewBox="0 0 1000 1000" style="enable-background:new 0 0 1000 1000;" xml:space="preserve">
<style type="text/css">
	.st0{fill:#7F7F7F;}
	.st1{fill:#EC5126;}
	.st2{fill:#32A5A5;}
</style>
<g>
	<path class="st0" d="M297.6,302.9c7,6.1,17.2,6.3,24.5,0.5c0,0,0.1-0.1,0.1-0.1c49-39,110.2-59.7,172.3-58.3l0,0l0,0
		c15.7,0.3,31.6,2.1,47.1,5.2c31.8,6.3,61.5,18.1,88.3,34.6c6.9,4.3,15.8,3.6,22.2-1.5c17.3-13.9,35.1-27.5,53.4-40.7
		c10.6-7.7,10.6-23.5,0-31.2c-41.6-29.9-90.1-51.6-143.6-62.3c-21.8-4.4-43.6-6.7-65.1-7.2c-93.4-2-181.9,31.5-249.9,90
		c-9.2,7.9-8.8,22.3,0.8,29.7C264.9,275.1,281.6,288.9,297.6,302.9z"/>
	<path class="st0" d="M860.3,507.1c-0.2-10.6-10.3-18.1-20.4-15.1c-0.1,0-0.1,0-0.2,0.1c-24.5,7.2-49,15.1-72.8,24.4
		c-5.8,2.2-9.7,7.7-10.1,13.8c-0.8,11.9-2.3,23.8-4.7,35.7c-6.3,31.7-18.1,61.6-34.9,88.8c-16.3,26.3-36.9,49.4-61.2,68.7
		c-49,39-110.2,59.7-172.3,58.3c-15.7-0.3-31.6-2.1-47.2-5.2c-70.2-14-130.8-54.6-170.5-114.2c-31.6-47.4-47-102.3-45-158.1
		c0.2-6.6-3.6-12.7-9.7-15.2c-2.6-1.1-5.3-2.2-7.9-3.4c-17-7.3-33.6-15.8-50.9-22.5c-3.5-1.3-7-2.8-10.6-4.2
		c-9.7-3.9-20.6,2.5-21.7,12.9C98.6,661.8,225.7,839.6,416.2,877.7c21.8,4.4,43.6,6.7,65.1,7.2c176.5,3.8,335.8-119.4,371.7-298.7
		C858.3,559.7,860.7,533.2,860.3,507.1z"/>
</g>
<path class="st1" d="M988.7,436.2c-190,31.2-355.1,106-484.6,205.1c-2.4,1.9-6,1.9-9.3,0.2c-29.4-15.7-60.1-30.2-92.2-43.3
	c-6-2.5-9.1-9-6.1-13.5c102.9-155.4,256-297.2,452.6-400.3c5.6-3,14.8-0.1,18.8,5.9C918.6,266.4,960.6,345,994,424.7
	C996.3,430.2,993.9,435.3,988.7,436.2z"/>
<path class="st2" d="M161.6,237.1c117.2,70.5,210.2,160.4,275.8,258c1.8,2.7,1.7,6-0.3,8.4c-16,19.4-31.2,39.3-45.6,59.6
	c-2.6,3.6-7.7,4.3-11.2,1.5c-96.4-76.8-221.7-134.3-366.7-156.1c-5.8-0.9-8.6-6.1-5.5-10.7c38-55.9,84-109.6,137.6-159.2
	C149.7,235.1,157,234.4,161.6,237.1z"/>
</svg>
